<?xml version="1.0" encoding="UTF-8" standalone="no"?>
<!DOCTYPE svg PUBLIC "-//W3C//DTD SVG 1.1//EN"
 "http://www.w3.org/Graphics/SVG/1.1/DTD/svg11.dtd">
<!-- Generated by graphviz version 2.36.0 (20140111.2315)
 -->
<!-- Title: AVLString Pages: 1 -->
<svg width="142pt" height="536pt"
 viewBox="0.00 0.00 142.00 536.00" xmlns="http://www.w3.org/2000/svg" xmlns:xlink="http://www.w3.org/1999/xlink">
<g id="graph0" class="graph" transform="scale(1 1) rotate(0) translate(4 532)">
<title>AVLString</title>
<polygon fill="white" stroke="none" points="-4,4 -4,-532 138,-532 138,4 -4,4"/>
<!-- Node1 -->
<g id="node1" class="node"><title>Node1</title>
<polygon fill="#bfbfbf" stroke="black" points="8,-1 8,-421 84,-421 84,-1 8,-1"/>
<text text-anchor="middle" x="46" y="-409" font-family="Helvetica,sans-Serif" font-size="10.00">AVLString</text>
<polyline fill="none" stroke="black" points="8,-402 84,-402 "/>
<text text-anchor="middle" x="46" y="-390" font-family="Helvetica,sans-Serif" font-size="10.00"> </text>
<polyline fill="none" stroke="black" points="8,-383 84,-383 "/>
<text text-anchor="start" x="16" y="-371" font-family="Helvetica,sans-Serif" font-size="10.00">+ AVLString()</text>
<text text-anchor="start" x="16" y="-360" font-family="Helvetica,sans-Serif" font-size="10.00">+ AVLString()</text>
<text text-anchor="start" x="16" y="-349" font-family="Helvetica,sans-Serif" font-size="10.00">+ AVLString()</text>
<text text-anchor="start" x="16" y="-338" font-family="Helvetica,sans-Serif" font-size="10.00">+ elt()</text>
<text text-anchor="start" x="16" y="-327" font-family="Helvetica,sans-Serif" font-size="10.00">+ sag()</text>
<text text-anchor="start" x="16" y="-316" font-family="Helvetica,sans-Serif" font-size="10.00">+ sad()</text>
<text text-anchor="start" x="16" y="-305" font-family="Helvetica,sans-Serif" font-size="10.00">+ getBal()</text>
<text text-anchor="start" x="16" y="-294" font-family="Helvetica,sans-Serif" font-size="10.00">+ setRac()</text>
<text text-anchor="start" x="16" y="-283" font-family="Helvetica,sans-Serif" font-size="10.00">+ setFilsG()</text>
<text text-anchor="start" x="16" y="-272" font-family="Helvetica,sans-Serif" font-size="10.00">+ setFilsD()</text>
<text text-anchor="start" x="16" y="-261" font-family="Helvetica,sans-Serif" font-size="10.00">+ setBal()</text>
<text text-anchor="start" x="16" y="-250" font-family="Helvetica,sans-Serif" font-size="10.00">+ avlVide()</text>
<text text-anchor="start" x="16" y="-239" font-family="Helvetica,sans-Serif" font-size="10.00">+ estVide()</text>
<text text-anchor="start" x="16" y="-228" font-family="Helvetica,sans-Serif" font-size="10.00">+ estFeuille()</text>
<text text-anchor="start" x="16" y="-217" font-family="Helvetica,sans-Serif" font-size="10.00">+ bal()</text>
<text text-anchor="start" x="16" y="-206" font-family="Helvetica,sans-Serif" font-size="10.00">+ hauteur()</text>
<text text-anchor="start" x="16" y="-195" font-family="Helvetica,sans-Serif" font-size="10.00">+ element()</text>
<text text-anchor="start" x="16" y="-184" font-family="Helvetica,sans-Serif" font-size="10.00">+ ajout()</text>
<text text-anchor="start" x="16" y="-173" font-family="Helvetica,sans-Serif" font-size="10.00">+ suppr()</text>
<text text-anchor="start" x="16" y="-162" font-family="Helvetica,sans-Serif" font-size="10.00">+ copy()</text>
<text text-anchor="start" x="16" y="-151" font-family="Helvetica,sans-Serif" font-size="10.00">+ rotG()</text>
<text text-anchor="start" x="16" y="-140" font-family="Helvetica,sans-Serif" font-size="10.00">+ rotD()</text>
<text text-anchor="start" x="16" y="-129" font-family="Helvetica,sans-Serif" font-size="10.00">+ dRotG()</text>
<text text-anchor="start" x="16" y="-118" font-family="Helvetica,sans-Serif" font-size="10.00">+ dRotD()</text>
<text text-anchor="start" x="16" y="-107" font-family="Helvetica,sans-Serif" font-size="10.00">+ equilibrer()</text>
<text text-anchor="start" x="16" y="-96" font-family="Helvetica,sans-Serif" font-size="10.00">+ max()</text>
<text text-anchor="start" x="16" y="-85" font-family="Helvetica,sans-Serif" font-size="10.00">+ min()</text>
<text text-anchor="start" x="16" y="-74" font-family="Helvetica,sans-Serif" font-size="10.00">+ oterMax()</text>
<text text-anchor="start" x="16" y="-63" font-family="Helvetica,sans-Serif" font-size="10.00">+ oterMin()</text>
<text text-anchor="start" x="16" y="-52" font-family="Helvetica,sans-Serif" font-size="10.00">+ trier()</text>
<text text-anchor="start" x="16" y="-41" font-family="Helvetica,sans-Serif" font-size="10.00">+ pref()</text>
<text text-anchor="start" x="16" y="-30" font-family="Helvetica,sans-Serif" font-size="10.00">+ symm()</text>
<text text-anchor="start" x="16" y="-19" font-family="Helvetica,sans-Serif" font-size="10.00">+ post()</text>
<text text-anchor="start" x="16" y="-8" font-family="Helvetica,sans-Serif" font-size="10.00">+ print()</text>
</g>
<!-- Node1&#45;&gt;Node1 -->
<g id="edge3" class="edge"><title>Node1&#45;&gt;Node1</title>
<path fill="none" stroke="#404040" d="M84.214,-254.489C94.3346,-252.004 102,-237.508 102,-211 102,-194.018 98.8541,-181.966 93.9322,-174.844"/>
<polygon fill="none" stroke="#404040" points="93.7929,-174.739 86.5941,-174.318 84.214,-167.511 91.4128,-167.932 93.7929,-174.739"/>
<text text-anchor="middle" x="118" y="-214" font-family="Helvetica,sans-Serif" font-size="10.00"> &#45;filsG_</text>
<text text-anchor="middle" x="118" y="-203" font-family="Helvetica,sans-Serif" font-size="10.00">&#45;filsD_</text>
</g>
<!-- Node2 -->
<g id="node2" class="node"><title>Node2</title>
<polygon fill="white" stroke="#bfbfbf" points="-1,-470.5 -1,-527.5 41,-527.5 41,-470.5 -1,-470.5"/>
<text text-anchor="middle" x="20" y="-515.5" font-family="Helvetica,sans-Serif" font-size="10.00">String</text>
<polyline fill="none" stroke="#bfbfbf" points="-1,-508.5 41,-508.5 "/>
<text text-anchor="middle" x="20" y="-496.5" font-family="Helvetica,sans-Serif" font-size="10.00"> </text>
<polyline fill="none" stroke="#bfbfbf" points="-1,-489.5 41,-489.5 "/>
<text text-anchor="middle" x="20" y="-477.5" font-family="Helvetica,sans-Serif" font-size="10.00"> </text>
</g>
<!-- Node2&#45;&gt;Node1 -->
<g id="edge1" class="edge"><title>Node2&#45;&gt;Node1</title>
<path fill="none" stroke="#404040" d="M22.5166,-470.317C23.4525,-460.022 24.6031,-447.366 25.8874,-433.238"/>
<polygon fill="none" stroke="#404040" points="25.9095,-432.995 22.4691,-426.657 26.996,-421.044 30.4363,-427.382 25.9095,-432.995"/>
<text text-anchor="middle" x="37.5" y="-443.5" font-family="Helvetica,sans-Serif" font-size="10.00"> &#45;rac_</text>
</g>
<!-- Node3 -->
<g id="node3" class="node"><title>Node3</title>
<polygon fill="white" stroke="#bfbfbf" points="58.5,-470.5 58.5,-527.5 87.5,-527.5 87.5,-470.5 58.5,-470.5"/>
<text text-anchor="middle" x="73" y="-515.5" font-family="Helvetica,sans-Serif" font-size="10.00">int</text>
<polyline fill="none" stroke="#bfbfbf" points="58.5,-508.5 87.5,-508.5 "/>
<text text-anchor="middle" x="73" y="-496.5" font-family="Helvetica,sans-Serif" font-size="10.00"> </text>
<polyline fill="none" stroke="#bfbfbf" points="58.5,-489.5 87.5,-489.5 "/>
<text text-anchor="middle" x="73" y="-477.5" font-family="Helvetica,sans-Serif" font-size="10.00"> </text>
</g>
<!-- Node3&#45;&gt;Node1 -->
<g id="edge2" class="edge"><title>Node3&#45;&gt;Node1</title>
<path fill="none" stroke="#404040" d="M70.3866,-470.317C69.4147,-460.022 68.2199,-447.366 66.8861,-433.238"/>
<polygon fill="none" stroke="#404040" points="66.8629,-432.991 62.3166,-427.394 65.7349,-421.044 70.2812,-426.642 66.8629,-432.991"/>
<text text-anchor="middle" x="80.5" y="-443.5" font-family="Helvetica,sans-Serif" font-size="10.00"> &#45;bal_</text>
</g>
</g>
</svg>
